# xmcd CD database file
#
# Track frame offsets:
#	150
#	23778
#	40474
#	52414
#	69718
#	88166
#	104588
#	107097
#	123996
#	144398
#	159981
#	174818
#	193982
#	216379
#
# Disc length: 2984 seconds
#
# Revision: 2
# Processed by: cddbd v1.5.2PL0 Copyright (c) Steve Scherf et al.
# Submitted via: CDex 1.70beta2
#
DISCID=d30ba60e
DTITLE=BEAGLE HAT - Magical Hat
DYEAR=2006
DGENRE=Melodic Rock
TTITLE0=Casgabarl!
TTITLE1=My Secret Holiday
TTITLE2=After The Typhoon
TTITLE3=On My Way
TTITLE4=Half Invisible Man
TTITLE5=Goldmine
TTITLE6=Indoor Swimming Pool
TTITLE7=Wrecker Pulls Away
TTITLE8=Hide And Seek
TTITLE9=Under A Blue Moon
TTITLE10=Look For Another Submarine
TTITLE11=A Wandering Penguin
TTITLE12=Fairyland
TTITLE13=Casgabarl! (When I Was A Little Boy)
EXTD=YEAR: 2006
EXTT0=
EXTT1=
EXTT2=
EXTT3=
EXTT4=
EXTT5=
EXTT6=
EXTT7=
EXTT8=
EXTT9=
EXTT10=
EXTT11=
EXTT12=
EXTT13=
PLAYORDER=
